<svg xmlns="http://www.w3.org/2000/svg" xmlns:xlink="http://www.w3.org/1999/xlink" xmlns:inkscape="http://www.inkscape.org/namespaces/inkscape" version="1.1" width="100%" height="100%" viewBox="50 300 330 180" preserveAspectRatio="xMinYMid meet">

<defs>
<clipPath id="clip_1">
<path transform="matrix(1,0,0,-1,0,720)" d="M0 0H720V720H0Z"/>
</clipPath>
</defs>
<path transform="matrix(1,0,0,-1,0,720)" d="M0 0H720V720H0Z" fill="#7bc1d1"/>
<g clip-path="url(#clip_1)">
<path transform="matrix(1,0,0,-1,310.1384,420)" d="M0 0C-.194 0-.39 .027-.584 .082L-.743 .128-43.055 19.96-55.79 8.074-56.074 7.933C-56.961 7.491-57.985 7.693-58.683 8.445L-90.709 42.696-87.6 46.262-56.94 13.485-44.675 24.931-44.391 25.073C-43.908 25.313-43.361 25.366-42.848 25.222L-42.684 25.176-42.527 25.103-8.126 8.979-68.92 82.251-113.825 27.701C-114.706 26.656-116.195 26.594-117.144 27.562L-135.922 46.712-165.211 7.748C-165.955 6.759-167.22 6.515-168.219 7.168L-181.253 15.677-208.581 6.122C-209.591 5.769-210.698 6.213-211.273 7.201-211.847 8.19-211.758 9.495-211.056 10.375L-140.065 99.34C-139.64 99.874-139.028 100.195-138.387 100.222-137.746 100.246-137.114 99.979-136.654 99.482L-101.534 61.909-104.642 58.343-138.185 94.214-202.676 13.393-181.702 20.727C-181.066 20.949-180.372 20.862-179.797 20.486L-167.494 12.454-137.936 51.777C-137.523 52.325-136.92 52.666-136.28 52.713-135.64 52.762-135.002 52.512-134.529 52.03L-115.677 32.805-70.647 87.508C-70.208 88.027-69.588 88.329-68.946 88.335H-68.927C-68.292 88.335-67.676 88.046-67.233 87.54L-67.192 87.492 1.729 4.424C2.437 3.583 2.57 2.309 2.048 1.309 1.62 .487 .828 0 0 0" fill="#043945"/>
<path transform="matrix(1,0,0,-1,337.8308,418.4196)" d="M0 0C-.148-.651 .148-1.116 .887-1.116H2.858C3.252-1.116 3.695-.79 3.745-.465L8.031 23.473H8.228L17.392-1.069C17.491-1.348 17.934-1.58 18.23-1.58H19.117C19.412-1.58 19.856-1.348 19.954-1.069L29.02 23.473H29.217L33.602-.465C33.701-.79 34.095-1.116 34.489-1.116H36.46C37.199-1.116 37.495-.651 37.347 0L30.991 31.235C30.892 31.607 30.498 31.886 30.104 31.886H29.316C28.971 31.886 28.577 31.654 28.478 31.375L18.87 5.764H18.624L8.869 31.375C8.77 31.654 8.376 31.886 8.031 31.886H7.243C6.849 31.886 6.454 31.607 6.356 31.235ZM52.866-1.116H54.837C55.281-1.116 55.576-.837 55.675-.604L59.272 7.065H76.762L80.408-.604C80.507-.837 80.803-1.116 81.246-1.116H83.217C83.956-1.116 84.35-.511 84.054 .093L69.175 31.375C69.027 31.654 68.781 31.886 68.337 31.886H67.845C67.401 31.886 67.155 31.654 67.007 31.375L52.029 .093C51.733-.511 52.127-1.116 52.866-1.116M60.651 9.947 67.845 25.193H68.239C70.653 20.126 73.018 15.013 75.432 9.947ZM104.206-.232C104.206-.697 104.649-1.116 105.142-1.116H107.014C107.507-1.116 107.95-.697 107.95-.232V28.307H116.523C117.065 28.307 117.46 28.725 117.46 29.19V30.538C117.46 31.003 117.065 31.421 116.523 31.421H95.633C95.091 31.421 94.697 31.003 94.697 30.538V29.19C94.697 28.725 95.091 28.307 95.633 28.307H104.206ZM140.763-.232C140.763-.697 141.206-1.116 141.699-1.116H143.571C144.064-1.116 144.508-.697 144.508-.232V28.307H153.081C153.623 28.307 154.017 28.725 154.017 29.19V30.538C154.017 31.003 153.623 31.421 153.081 31.421H132.19C131.648 31.421 131.254 31.003 131.254 30.538V29.19C131.254 28.725 131.648 28.307 132.19 28.307H140.763ZM171.261-.232C171.261-.697 171.655-1.116 172.197-1.116H191.609C192.151-1.116 192.545-.697 192.545-.232V1.116C192.545 1.58 192.151 1.999 191.609 1.999H175.054V13.851H189.195C189.688 13.851 190.131 14.223 190.131 14.735V16.083C190.131 16.547 189.688 16.966 189.195 16.966H175.054V28.307H191.609C192.151 28.307 192.545 28.725 192.545 29.19V30.538C192.545 31.003 192.151 31.421 191.609 31.421H172.197C171.655 31.421 171.261 31.003 171.261 30.538ZM212.253-.232C212.253-.697 212.647-1.116 213.189-1.116H215.11C215.603-1.116 216.046-.697 216.046-.232V11.62H225.457L232.01-.697C232.109-.883 232.355-1.116 232.798-1.116H235.311C236.149-1.116 236.494-.372 236.149 .232L229.399 12.039C233.685 13.666 236.691 17.245 236.691 21.521 236.691 27.052 231.862 31.421 225.95 31.421H213.189C212.647 31.421 212.253 31.003 212.253 30.538ZM216.145 14.688V28.028H225.703C229.497 28.028 232.798 25.007 232.798 21.474 232.798 17.663 229.497 14.688 225.703 14.688ZM254.723 2.185C255.363 1.627 259.305-1.58 265.119-1.58 270.883-1.58 275.761 1.952 275.761 6.786 275.761 12.178 271.475 14.549 264.823 17.105 260.684 18.732 258.172 20.545 258.172 23.659 258.172 25.611 259.748 28.772 264.971 28.772 267.976 28.772 271.081 26.82 271.425 26.634 272.214 26.215 272.706 26.401 273.15 27.052 273.347 27.331 273.544 27.656 273.741 27.935 274.332 28.818 273.741 29.376 273.445 29.516 273.445 29.516 269.849 31.886 265.02 31.886 257.186 31.886 254.526 26.773 254.526 23.613 254.526 18.314 257.778 16.222 263.197 13.991 268.863 11.76 271.82 9.854 271.82 6.647 271.82 3.904 269.208 1.534 265.217 1.534 260.832 1.534 257.236 4.788 256.891 5.066 256.201 5.624 255.659 5.252 255.166 4.648 254.92 4.369 254.674 4.044 254.427 3.765 253.836 2.882 254.329 2.51 254.723 2.185" fill="#043945"/>
<path transform="matrix(1,0,0,-1,332.5801,366.9155)" d="M0 0C-.148-.961 .371-1.578 1.408-1.578H6.225C6.818-1.578 7.485-1.098 7.559-.618L12.894 30.053H13.191L26.604-1.51C26.752-1.921 27.271-2.264 27.863-2.264H29.197C29.864-2.264 30.309-1.921 30.457-1.51L43.796 30.053H44.018L49.502-.618C49.65-1.098 50.243-1.578 50.91-1.578H55.727C56.764-1.578 57.283-.961 57.061 0L47.946 46.109C47.797 46.658 47.205 47.139 46.612 47.139H45.426C44.907 47.139 44.315 46.796 44.166 46.384L28.753 11.322H28.456L12.968 46.384C12.82 46.796 12.153 47.139 11.709 47.139H10.523C9.93 47.139 9.337 46.658 9.189 46.109ZM88.555-1.51C88.777-1.921 89.296-2.264 89.814-2.264H90.555C91.148-2.264 91.593-1.921 91.815-1.51L114.565 44.669C115.01 45.561 114.417 46.453 113.306 46.453H108.044C107.377 46.453 106.933 46.041 106.784 45.698L90.481 11.733H90.037L73.734 45.698C73.586 46.041 73.067 46.453 72.474 46.453H67.213C66.101 46.453 65.508 45.561 65.953 44.669ZM123.383 0C123.235-.961 123.754-1.578 124.791-1.578H129.608C130.201-1.578 130.868-1.098 130.942-.618L136.278 30.053H136.574L149.987-1.51C150.135-1.921 150.654-2.264 151.247-2.264H152.581C153.247-2.264 153.692-1.921 153.84-1.51L167.179 30.053H167.401L172.885-.618C173.033-1.098 173.626-1.578 174.293-1.578H179.11C180.147-1.578 180.666-.961 180.444 0L171.329 46.109C171.181 46.658 170.588 47.139 169.995 47.139H168.809C168.291 47.139 167.698 46.796 167.55 46.384L152.136 11.322H151.839L136.352 46.384C136.203 46.796 135.536 47.139 135.092 47.139H133.906C133.313 47.139 132.721 46.658 132.572 46.109ZM197.265-.274C197.265-.961 197.932-1.578 198.673-1.578H203.341C204.156-1.578 204.749-.961 204.749-.274V33.141H204.823L236.985-2.264H238.911C239.652-2.264 240.319-1.715 240.319-1.029V45.149C240.319 45.835 239.652 46.453 238.911 46.453H234.169C233.354 46.453 232.761 45.835 232.761 45.149V12.694H232.687L200.525 47.139H198.673C197.932 47.139 197.265 46.59 197.265 45.904ZM267.738-.274C267.738-.961 268.405-1.578 269.146-1.578H274.037C274.778-1.578 275.445-.961 275.445-.274V40.003H287.524C288.339 40.003 288.932 40.62 288.932 41.306V45.149C288.932 45.835 288.339 46.453 287.524 46.453H255.659C254.844 46.453 254.251 45.835 254.251 45.149V41.306C254.251 40.62 254.844 40.003 255.659 40.003H267.738Z" fill="#f5eede"/>
</g>
</svg>
