<svg xmlns="http://www.w3.org/2000/svg" xmlns:xlink="http://www.w3.org/1999/xlink" xmlns:inkscape="http://www.inkscape.org/namespaces/inkscape" version="1.1" width="100%" height="100%" viewBox="50 300 330 180" preserveAspectRatio="xMinYMid meet">
<defs>
<clipPath id="clip_1">
<path transform="matrix(1,0,0,-1,0,720)" d="M0 0H720V720H0Z"/>
</clipPath>
</defs>
<path transform="matrix(1,0,0,-1,0,720)" d="M0 0H720V720H0Z" fill=""/>
<g clip-path="url(#clip_1)">
<path transform="matrix(1,0,0,-1,341.963,416.8767)" d="M0 0C-.22 0-.442 .03-.662 .093L-.843 .145-48.867 22.654-63.321 9.164-63.644 9.004C-64.651 8.503-65.813 8.731-66.605 9.585L-102.954 48.46-99.426 52.507-64.627 15.305-50.706 28.297-50.383 28.458C-49.836 28.73-49.215 28.79-48.633 28.627L-48.446 28.575-48.269 28.491-9.223 10.191-78.224 93.355-129.191 31.44C-130.191 30.255-131.881 30.184-132.959 31.283L-154.271 53.018-187.514 8.794C-188.359 7.671-189.795 7.395-190.929 8.135L-205.722 17.793-236.739 6.948C-237.886 6.548-239.142 7.052-239.795 8.173-240.447 9.295-240.346 10.776-239.548 11.775L-158.974 112.751C-158.491 113.357-157.797 113.721-157.069 113.752-156.342 113.779-155.625 113.476-155.102 112.912L-115.241 70.267-118.769 66.219-156.84 106.933-230.038 15.201-206.231 23.525C-205.51 23.778-204.722 23.678-204.07 23.252L-190.106 14.135-156.557 58.767C-156.089 59.389-155.404 59.776-154.678 59.829-153.952 59.885-153.227 59.601-152.69 59.054L-131.294 37.234-80.185 99.321C-79.686 99.911-78.982 100.253-78.254 100.26H-78.232C-77.512 100.26-76.812 99.933-76.31 99.358L-76.263 99.304 1.963 5.021C2.766 4.066 2.917 2.62 2.325 1.485 1.838 .553 .94 0 0 0" fill="#f5eede"/>
<path transform="matrix(1,0,0,-1,358.457,388.5951)" d="M0 0C-.128-.564 .128-.967 .768-.967H2.476C2.818-.967 3.202-.685 3.245-.403L6.959 20.339H7.129L15.07-.926C15.155-1.168 15.54-1.369 15.796-1.369H16.564C16.82-1.369 17.205-1.168 17.29-.926L25.145 20.339H25.316L29.116-.403C29.201-.685 29.543-.967 29.884-.967H31.592C32.232-.967 32.488-.564 32.36 0L26.853 27.065C26.768 27.387 26.426 27.629 26.085 27.629H25.401C25.103 27.629 24.761 27.427 24.676 27.186L16.351 4.994H16.137L7.684 27.186C7.599 27.427 7.258 27.629 6.959 27.629H6.276C5.934 27.629 5.593 27.387 5.507 27.065ZM45.807-.967H47.515C47.899-.967 48.156-.725 48.241-.524L51.357 6.122H66.513L69.672-.524C69.757-.725 70.014-.967 70.398-.967H72.105C72.746-.967 73.087-.443 72.831 .081L59.938 27.186C59.81 27.427 59.597 27.629 59.213 27.629H58.786C58.401 27.629 58.188 27.427 58.06 27.186L45.082 .081C44.826-.443 45.167-.967 45.807-.967M52.553 8.619 58.786 21.829H59.127C61.219 17.439 63.268 13.009 65.36 8.619ZM90.292-.201C90.292-.604 90.676-.967 91.103-.967H92.725C93.152-.967 93.536-.604 93.536-.201V24.527H100.965C101.434 24.527 101.776 24.89 101.776 25.293V26.461C101.776 26.863 101.434 27.226 100.965 27.226H82.864C82.394 27.226 82.052 26.863 82.052 26.461V25.293C82.052 24.89 82.394 24.527 82.864 24.527H90.292ZM121.968-.201C121.968-.604 122.352-.967 122.779-.967H124.401C124.828-.967 125.212-.604 125.212-.201V24.527H132.641C133.11 24.527 133.452 24.89 133.452 25.293V26.461C133.452 26.863 133.11 27.226 132.641 27.226H114.54C114.07 27.226 113.728 26.863 113.728 26.461V25.293C113.728 24.89 114.07 24.527 114.54 24.527H121.968ZM148.393-.201C148.393-.604 148.735-.967 149.204-.967H166.025C166.495-.967 166.836-.604 166.836-.201V.967C166.836 1.369 166.495 1.732 166.025 1.732H151.681V12.002H163.933C164.36 12.002 164.744 12.324 164.744 12.767V13.935C164.744 14.338 164.36 14.7 163.933 14.7H151.681V24.527H166.025C166.495 24.527 166.836 24.89 166.836 25.293V26.461C166.836 26.863 166.495 27.226 166.025 27.226H149.204C148.735 27.226 148.393 26.863 148.393 26.461ZM183.912-.201C183.912-.604 184.253-.967 184.723-.967H186.388C186.815-.967 187.199-.604 187.199-.201V10.069H195.353L201.031-.604C201.117-.765 201.33-.967 201.714-.967H203.892C204.617-.967 204.916-.322 204.617 .201L198.769 10.431C202.483 11.841 205.087 14.942 205.087 18.647 205.087 23.44 200.903 27.226 195.78 27.226H184.723C184.253 27.226 183.912 26.863 183.912 26.461ZM187.285 12.727V24.286H195.567C198.854 24.286 201.714 21.668 201.714 18.607 201.714 15.305 198.854 12.727 195.567 12.727ZM220.711 1.893C221.266 1.41 224.682-1.369 229.719-1.369 234.714-1.369 238.941 1.692 238.941 5.88 238.941 10.552 235.227 12.606 229.463 14.821 225.877 16.231 223.7 17.802 223.7 20.5 223.7 22.192 225.066 24.93 229.591 24.93 232.195 24.93 234.885 23.239 235.184 23.078 235.867 22.715 236.294 22.876 236.678 23.44 236.849 23.682 237.02 23.964 237.19 24.205 237.703 24.971 237.19 25.454 236.934 25.575 236.934 25.575 233.818 27.629 229.634 27.629 222.846 27.629 220.541 23.198 220.541 20.46 220.541 15.868 223.358 14.056 228.054 12.123 232.964 10.19 235.525 8.538 235.525 5.759 235.525 3.383 233.263 1.329 229.805 1.329 226.005 1.329 222.889 4.148 222.59 4.39 221.992 4.873 221.523 4.551 221.096 4.028 220.882 3.786 220.669 3.504 220.455 3.262 219.943 2.497 220.37 2.175 220.711 1.893" fill="#f5eede"/>
<path transform="matrix(1,0,0,-1,353.9074,343.9679)" d="M0 0C-.128-.832 .321-1.367 1.22-1.367H5.394C5.907-1.367 6.485-.951 6.549-.535L11.173 26.041H11.429L23.051-1.308C23.18-1.665 23.629-1.962 24.143-1.962H25.299C25.877-1.962 26.262-1.665 26.39-1.308L37.948 26.041H38.141L42.892-.535C43.021-.951 43.534-1.367 44.112-1.367H48.286C49.185-1.367 49.634-.832 49.442 0L41.544 39.953C41.415 40.428 40.902 40.845 40.388 40.845H39.361C38.911 40.845 38.398 40.547 38.269 40.191L24.913 9.81H24.657L11.237 40.191C11.108 40.547 10.53 40.845 10.145 40.845H9.118C8.604 40.845 8.09 40.428 7.962 39.953ZM76.731-1.308C76.923-1.665 77.373-1.962 77.822-1.962H78.464C78.978-1.962 79.363-1.665 79.556-1.308L99.268 38.704C99.653 39.477 99.14 40.25 98.177 40.25H93.618C93.04 40.25 92.655 39.893 92.526 39.596L78.4 10.167H78.015L63.889 39.596C63.76 39.893 63.311 40.25 62.797 40.25H58.238C57.275 40.25 56.761 39.477 57.147 38.704ZM106.909 0C106.78-.832 107.23-1.367 108.129-1.367H112.302C112.816-1.367 113.394-.951 113.458-.535L118.081 26.041H118.338L129.96-1.308C130.089-1.665 130.538-1.962 131.052-1.962H132.207C132.785-1.962 133.171-1.665 133.299-1.308L144.857 26.041H145.049L149.801-.535C149.929-.951 150.443-1.367 151.021-1.367H155.195C156.094-1.367 156.543-.832 156.35 0L148.453 39.953C148.324 40.428 147.81 40.845 147.297 40.845H146.269C145.82 40.845 145.306 40.547 145.178 40.191L131.822 9.81H131.565L118.146 40.191C118.017 40.547 117.439 40.845 117.054 40.845H116.027C115.513 40.845 114.999 40.428 114.871 39.953ZM170.925-.238C170.925-.832 171.503-1.367 172.145-1.367H176.19C176.897-1.367 177.41-.832 177.41-.238V28.716H177.475L205.342-1.962H207.011C207.653-1.962 208.231-1.486 208.231-.892V39.12C208.231 39.715 207.653 40.25 207.011 40.25H202.902C202.195 40.25 201.682 39.715 201.682 39.12V10.999H201.618L173.75 40.845H172.145C171.503 40.845 170.925 40.369 170.925 39.774ZM231.988-.238C231.988-.832 232.566-1.367 233.208-1.367H237.446C238.088-1.367 238.666-.832 238.666-.238V34.661H249.133C249.839 34.661 250.352 35.197 250.352 35.791V39.12C250.352 39.715 249.839 40.25 249.133 40.25H221.522C220.816 40.25 220.302 39.715 220.302 39.12V35.791C220.302 35.197 220.816 34.661 221.522 34.661H231.988Z" fill="#7bc1d1"/>
<path transform="matrix(1,0,0,-1,384.5883,416.4208)" d="M0 0C0-.157 .126-.299 .298-.299H.895C1.051-.299 1.193-.157 1.193 0V3.694H3.787C5.706 3.694 7.292 5.28 7.292 7.23 7.292 9.133 5.706 10.703 3.772 10.703H.298C.126 10.703 0 10.561 0 10.404ZM1.193 4.855V9.51H3.693C4.982 9.51 6.083 8.535 6.083 7.261 6.083 5.909 4.982 4.855 3.693 4.855ZM12.512 0C12.512-.157 12.653-.299 12.81-.299H13.422C13.595-.299 13.72-.157 13.72 0V4.763H20.104V0C20.104-.157 20.23-.299 20.402-.299H21.014C21.171-.299 21.313-.157 21.313 0V10.404C21.313 10.561 21.171 10.703 21.014 10.703H20.402C20.23 10.703 20.104 10.561 20.104 10.404V5.814H13.72V10.404C13.72 10.561 13.595 10.703 13.422 10.703H12.81C12.653 10.703 12.512 10.561 12.512 10.404ZM29.881 0C29.881-.157 30.007-.299 30.179-.299H30.791C30.948-.299 31.09-.157 31.09 0V5.013L34.925 10.247C35.051 10.451 34.925 10.703 34.673 10.703H33.935C33.825 10.703 33.73 10.624 33.683 10.561L30.509 6.176 27.335 10.561C27.288 10.624 27.193 10.703 27.083 10.703H26.344C26.093 10.703 25.967 10.451 26.093 10.247L29.881 4.998ZM39.076 .815C39.28 .627 40.536-.456 42.392-.456 44.232-.456 45.786 .737 45.786 2.372 45.786 4.196 44.421 4.998 42.298 5.862 40.977 6.413 40.175 7.026 40.175 8.079 40.175 8.74 40.678 9.809 42.345 9.809 43.304 9.809 44.295 9.148 44.405 9.085 44.656 8.944 44.813 9.007 44.955 9.227 45.017 9.321 45.08 9.431 45.143 9.526 45.331 9.824 45.143 10.013 45.049 10.06 45.049 10.06 43.902 10.86 42.361 10.86 39.861 10.86 39.013 9.133 39.013 8.063 39.013 6.271 40.049 5.564 41.779 4.809 43.587 4.054 44.531 3.41 44.531 2.325 44.531 1.397 43.697 .595 42.424 .595 41.024 .595 39.877 1.696 39.767 1.79 39.547 1.979 39.374 1.853 39.217 1.649 39.139 1.554 39.061 1.444 38.982 1.35 38.793 1.051 38.951 .926 39.076 .815M51.211 0C51.211-.157 51.352-.299 51.509-.299H52.137C52.294-.299 52.435-.157 52.435 0V10.404C52.435 10.561 52.294 10.703 52.137 10.703H51.509C51.352 10.703 51.211 10.561 51.211 10.404ZM57.986 5.186C57.986 2.042 60.514-.456 63.658-.456 65.057-.456 66.409 .031 67.478 1.067 67.588 1.177 67.619 1.397 67.494 1.492L67.022 1.916C66.928 1.979 66.802 1.995 66.645 1.869 65.812 1.24 65.01 .69 63.643 .69 61.159 .69 59.257 2.781 59.257 5.202 59.257 7.639 61.159 9.73 63.643 9.73 64.711 9.73 65.828 9.258 66.645 8.551 66.802 8.394 66.928 8.378 67.054 8.535L67.478 8.96C67.604 9.085 67.588 9.274 67.462 9.4 66.393 10.311 65.246 10.86 63.658 10.86 60.514 10.86 57.986 8.331 57.986 5.186M71.801-.299H72.43C72.572-.299 72.666-.204 72.697-.126L73.845 2.468H79.425L80.588-.126C80.62-.204 80.714-.299 80.855-.299H81.484C81.72-.299 81.846-.094 81.751 .11L77.004 10.687C76.957 10.781 76.878 10.86 76.737 10.86H76.58C76.438 10.86 76.36 10.781 76.313 10.687L71.534 .11C71.44-.094 71.565-.299 71.801-.299M74.285 3.44 76.58 8.596H76.706C77.476 6.883 78.23 5.154 79.001 3.44ZM86.609-.001C86.609-.157 86.735-.299 86.907-.299H92.345C92.518-.299 92.643-.157 92.643-.001V.454C92.643 .611 92.518 .753 92.345 .753H87.818V10.404C87.818 10.561 87.676 10.703 87.519 10.703H86.907C86.735 10.703 86.609 10.561 86.609 10.404ZM105.346 0C105.346-.157 105.487-.299 105.644-.299H106.24C106.397-.299 106.538-.157 106.538 0V9.651H109.274C109.446 9.651 109.572 9.793 109.572 9.95V10.405C109.572 10.561 109.446 10.703 109.274 10.703H102.611C102.438 10.703 102.312 10.561 102.312 10.405V9.95C102.312 9.793 102.438 9.651 102.611 9.651H105.346ZM114.447 0C114.447-.157 114.588-.299 114.745-.299H115.357C115.53-.299 115.655-.157 115.655 0V4.763H122.039V0C122.039-.157 122.165-.299 122.337-.299H122.949C123.106-.299 123.247-.157 123.247 0V10.404C123.247 10.561 123.106 10.703 122.949 10.703H122.337C122.165 10.703 122.039 10.561 122.039 10.404V5.814H115.655V10.404C115.655 10.561 115.53 10.703 115.357 10.703H114.745C114.588 10.703 114.447 10.561 114.447 10.404ZM129.6-.001C129.6-.157 129.725-.299 129.898-.299H136.09C136.262-.299 136.388-.157 136.388-.001V.454C136.388 .611 136.262 .753 136.09 .753H130.808V4.763H135.319C135.477 4.763 135.618 4.888 135.618 5.061V5.516C135.618 5.673 135.477 5.814 135.319 5.814H130.808V9.651H136.09C136.262 9.651 136.388 9.793 136.388 9.95V10.405C136.388 10.561 136.262 10.703 136.09 10.703H129.898C129.725 10.703 129.6 10.561 129.6 10.405ZM142.049 0C142.049-.157 142.174-.299 142.347-.299H142.959C143.116-.299 143.257-.157 143.257 0V4.008H146.26L148.352-.157C148.383-.22 148.462-.299 148.604-.299H149.404C149.671-.299 149.781-.047 149.671 .157L147.518 4.15C148.886 4.699 149.843 5.909 149.843 7.356 149.843 9.227 148.305 10.703 146.418 10.703H142.347C142.174 10.703 142.049 10.561 142.049 10.405ZM143.289 5.044V9.557H146.339C147.55 9.557 148.604 8.535 148.604 7.34 148.604 6.05 147.55 5.044 146.339 5.044ZM154.34-.299H154.969C155.11-.299 155.204-.204 155.236-.126L156.383 2.468H161.963L163.127-.126C163.158-.204 163.252-.299 163.394-.299H164.023C164.258-.299 164.384-.094 164.29 .11L159.543 10.687C159.495 10.781 159.417 10.86 159.275 10.86H159.118C158.977 10.86 158.898 10.781 158.851 10.687L154.073 .11C153.978-.094 154.104-.299 154.34-.299M156.823 3.44 159.118 8.596H159.244C160.014 6.883 160.769 5.154 161.539 3.44ZM169.148 0C169.148-.157 169.273-.299 169.446-.299H170.042C170.199-.299 170.34-.157 170.34 0V3.694H172.935C174.854 3.694 176.439 5.28 176.439 7.23 176.439 9.133 174.854 10.703 172.919 10.703H169.446C169.273 10.703 169.148 10.561 169.148 10.404ZM170.34 4.855V9.51H172.841C174.13 9.51 175.231 8.535 175.231 7.261 175.231 5.909 174.13 4.855 172.841 4.855ZM183.876 0C183.876-.157 184.002-.299 184.174-.299H184.786C184.943-.299 185.084-.157 185.084 0V5.013L188.92 10.247C189.046 10.451 188.92 10.703 188.668 10.703H187.93C187.82 10.703 187.725 10.624 187.678 10.561L184.504 6.176 181.33 10.561C181.282 10.624 181.188 10.703 181.078 10.703H180.339C180.088 10.703 179.962 10.451 180.088 10.247L183.876 4.998Z" fill="#7bc1d1"/>
</g>
</svg>
