<svg xmlns="http://www.w3.org/2000/svg" xmlns:xlink="http://www.w3.org/1999/xlink" xmlns:inkscape="http://www.inkscape.org/namespaces/inkscape" version="1.1" width="100%" height="100%" viewBox="100 100 420 460" preserveAspectRatio="xMinYMid meet">
<defs>
<clipPath id="clip_1">
<path transform="matrix(1,0,0,-1,0,720)" d="M0 0H720V720H0Z"/>
</clipPath>
</defs>
<path transform="matrix(1,0,0,-1,0,720)" d="M0 0H720V720H0Z" fill="#043945"/>
<g clip-path="url(#clip_1)">
<path transform="matrix(1,0,0,-1,540.7153,412.3816)" d="M0 0C-.335 0-.673 .046-1.008 .142L-1.283 .221-74.355 34.47-96.347 13.944-96.839 13.7C-98.371 12.938-100.139 13.285-101.344 14.585L-156.652 73.735-151.284 79.893-98.334 23.288-77.153 43.056-76.662 43.301C-75.829 43.715-74.883 43.806-73.998 43.558L-73.714 43.478-73.444 43.352-14.033 15.506-119.024 142.046-196.573 47.839C-198.094 46.034-200.666 45.927-202.305 47.599L-234.734 80.671-285.316 13.381C-286.601 11.672-288.786 11.251-290.511 12.378L-313.02 27.074-360.215 10.572C-361.96 9.963-363.871 10.73-364.864 12.437-365.856 14.143-365.702 16.397-364.489 17.917L-241.89 171.558C-241.155 172.48-240.098 173.035-238.991 173.081-237.885 173.123-236.793 172.661-235.998 171.803L-175.347 106.916-180.715 100.757-238.642 162.706-350.018 23.13-313.795 35.796C-312.697 36.179-311.498 36.028-310.506 35.38L-289.259 21.508-238.212 89.418C-237.499 90.364-236.458 90.953-235.353 91.035-234.248 91.118-233.146 90.687-232.328 89.855L-199.772 56.653-122.006 151.124C-121.247 152.022-120.177 152.542-119.069 152.553H-119.035C-117.939 152.553-116.875 152.054-116.11 151.18L-116.04 151.098 2.986 7.641C4.209 6.187 4.438 3.987 3.537 2.26 2.797 .841 1.43 0 0 0" fill="#f5eede"/>
<path transform="matrix(1,0,0,-1,226.8602,460.3918)" d="M0 0C-.137-.885 .341-1.455 1.298-1.455H5.737C6.284-1.455 6.898-1.012 6.967-.569L11.884 27.7H12.158L24.52-1.391C24.657-1.771 25.135-2.087 25.681-2.087H26.91C27.525-2.087 27.935-1.771 28.072-1.391L40.366 27.7H40.571L45.625-.569C45.761-1.012 46.308-1.455 46.923-1.455H51.362C52.318-1.455 52.796-.885 52.592 0L44.191 42.498C44.054 43.004 43.508 43.447 42.961 43.447H41.868C41.39 43.447 40.844 43.131 40.707 42.751L26.501 10.435H26.227L11.953 42.751C11.816 43.131 11.201 43.447 10.792 43.447H9.699C9.152 43.447 8.606 43.004 8.469 42.498ZM81.619-1.391C81.824-1.771 82.302-2.087 82.78-2.087H83.463C84.01-2.087 84.419-1.771 84.624-1.391L105.593 41.17C106.002 41.992 105.456 42.814 104.431 42.814H99.582C98.967 42.814 98.558 42.435 98.421 42.119L83.395 10.814H82.985L67.959 42.119C67.822 42.435 67.344 42.814 66.798 42.814H61.948C60.924 42.814 60.378 41.992 60.787 41.17ZM113.72 0C113.583-.885 114.061-1.455 115.018-1.455H119.457C120.004-1.455 120.618-1.012 120.687-.569L125.604 27.7H125.878L138.24-1.391C138.377-1.771 138.855-2.087 139.401-2.087H140.63C141.245-2.087 141.655-1.771 141.792-1.391L154.086 27.7H154.291L159.345-.569C159.481-1.012 160.028-1.455 160.643-1.455H165.082C166.038-1.455 166.516-.885 166.311 0L157.911 42.498C157.774 43.004 157.228 43.447 156.681 43.447H155.588C155.11 43.447 154.564 43.131 154.427 42.751L140.221 10.435H139.947L125.673 42.751C125.536 43.131 124.921 43.447 124.511 43.447H123.419C122.872 43.447 122.326 43.004 122.189 42.498ZM181.815-.253C181.815-.885 182.43-1.455 183.113-1.455H187.416C188.167-1.455 188.713-.885 188.713-.253V30.546H188.782L218.424-2.087H220.2C220.883-2.087 221.498-1.581 221.498-.949V41.613C221.498 42.245 220.883 42.814 220.2 42.814H215.829C215.077 42.814 214.531 42.245 214.531 41.613V11.7H214.463L184.82 43.447H183.113C182.43 43.447 181.815 42.941 181.815 42.309ZM246.769-.253C246.769-.885 247.383-1.455 248.066-1.455H252.574C253.257-1.455 253.872-.885 253.872-.253V36.87H265.005C265.756 36.87 266.303 37.439 266.303 38.071V41.613C266.303 42.245 265.756 42.814 265.005 42.814H235.635C234.884 42.814 234.338 42.245 234.338 41.613V38.071C234.338 37.439 234.884 36.87 235.635 36.87H246.769Z" fill="#7bc1d1"/>
<path transform="matrix(1,0,0,-1,359.9998,552.60769)" d="M0 0C-106.204 0-192.608 86.403-192.608 192.608-192.608 298.812-106.204 385.215 0 385.215 106.205 385.215 192.608 298.812 192.608 192.608 192.608 86.403 106.205 0 0 0M0 377.337C-101.86 377.337-184.73 294.468-184.73 192.608-184.73 90.748-101.86 7.878 0 7.878 101.86 7.878 184.73 90.748 184.73 192.608 184.73 294.468 101.86 377.337 0 377.337" fill="#7bc1d1"/>
<path transform="matrix(1,0,0,-1,316.453,476.85279)" d="M0 0C-.17 .321-.449 .49-.806 .49H-1.12C-1.477 .49-1.755 .32-1.931-.011L-11.486-19.965C-11.62-20.24-11.611-20.536-11.46-20.777-11.301-21.032-11.015-21.178-10.675-21.178H-9.418C-9.004-21.178-8.71-20.919-8.606-20.674L-6.394-15.959H4.375L6.612-20.664C6.721-20.919 7.015-21.178 7.429-21.178H8.687C9.027-21.178 9.314-21.032 9.473-20.776 9.623-20.535 9.632-20.239 9.499-19.968ZM3.234-13.506H-5.225L-.994-4.539C-.267-6.065 .453-7.598 1.172-9.131 1.857-10.591 2.543-12.051 3.234-13.506" fill="#f5eede"/>
<path transform="matrix(1,0,0,-1,346.3871,476.6594)" d="M0 0H-13.327C-13.825 0-14.231-.391-14.231-.87V-1.73C-14.231-2.211-13.825-2.602-13.327-2.602H-8.165V-20.5C-8.165-20.964-7.742-21.372-7.26-21.372H-6.066C-5.584-21.372-5.162-20.964-5.162-20.5V-2.602H0C.499-2.602 .904-2.211 .904-1.73V-.87C.904-.391 .499 0 0 0" fill="#f5eede"/>
<path transform="matrix(1,0,0,-1,292.119,477.00813)" d="M0 0C-.096 .368-.466 .646-.862 .646H-1.365C-1.722 .646-2.084 .412-2.188 .119L-8.109-15.666-14.119 .114C-14.225 .412-14.587 .646-14.944 .646H-15.447C-15.841 .646-16.211 .368-16.312-.017L-20.367-19.939C-20.454-20.329-20.339-20.578-20.227-20.718-20.116-20.857-19.9-21.023-19.501-21.023H-18.244C-17.836-21.023-17.43-20.708-17.376-20.355L-14.798-5.959-9.261-20.788C-9.149-21.105-8.745-21.319-8.437-21.319H-7.872C-7.564-21.319-7.16-21.105-7.049-20.792L-1.57-5.959 1.075-20.39C1.182-20.739 1.567-21.023 1.935-21.023H3.192C3.591-21.023 3.808-20.857 3.918-20.718 4.031-20.578 4.146-20.328 4.059-19.942Z" fill="#f5eede"/>
<path transform="matrix(1,0,0,-1,369.7093,476.6594)" d="M0 0H-13.327C-13.826 0-14.232-.391-14.232-.87V-1.73C-14.232-2.211-13.826-2.602-13.327-2.602H-8.165V-20.5C-8.165-20.964-7.743-21.372-7.261-21.372H-6.067C-5.585-21.372-5.162-20.964-5.162-20.5V-2.602H0C.498-2.602 .903-2.211 .903-1.73V-.87C.903-.391 .498 0 0 0" fill="#f5eede"/>
<path transform="matrix(1,0,0,-1,394.2884,476.6594)" d="M0 0H-12.384C-12.883 0-13.289-.391-13.289-.87V-20.5C-13.289-20.981-12.883-21.372-12.384-21.372H0C.498-21.372 .903-20.981 .903-20.5V-19.64C.903-19.161 .498-18.77 0-18.77H-10.255V-11.823H-1.54C-1.042-11.823-.637-11.433-.637-10.952V-10.092C-.637-9.629-1.059-9.222-1.54-9.222H-10.255V-2.602H0C.498-2.602 .903-2.211 .903-1.73V-.87C.903-.391 .498 0 0 0" fill="#f5eede"/>
<path transform="matrix(1,0,0,-1,441.1068,485.8142)" d="M0 0C-2.876 1.13-4.049 2.259-4.049 3.896-4.049 4.917-3.206 6.851-.019 6.851 .746 6.851 2.04 6.63 3.856 5.579L3.956 5.522C4.572 5.194 5.062 5.313 5.449 5.883 5.516 5.976 5.581 6.076 5.646 6.176 5.706 6.269 5.767 6.361 5.831 6.453 6.078 6.821 6.066 7.128 6.013 7.321 5.93 7.622 5.704 7.822 5.558 7.888 5.461 7.952 3.149 9.452 .014 9.452-5.124 9.452-6.988 6.111-6.988 3.866-6.988 .106-4.398-1.267-1.262-2.558 2.655-4.1 4.044-5.251 4.044-6.958 4.044-8.642 2.365-9.911 .139-9.911-2.063-9.911-3.976-8.574-4.92-7.777L-4.979-7.727C-5.491-7.313-6.005-7.417-6.504-8.029-6.586-8.123-6.668-8.223-6.75-8.324-6.825-8.416-6.9-8.508-6.999-8.625-7.523-9.408-7.013-9.826-6.768-10.027L-6.556-9.804-6.758-10.035C-6.283-10.449-3.724-12.513 .076-12.513 4.056-12.513 7.172-10.034 7.172-6.869 7.172-3.066 3.923-1.508 0 0" fill="#f5eede"/>
<path transform="matrix(1,0,0,-1,423.3539,483.2825)" d="M0 0C0 3.652-3.211 6.623-7.158 6.623H-15.3C-15.798 6.623-16.203 6.232-16.203 5.753V-13.877C-16.203-14.358-15.798-14.749-15.3-14.749H-14.073C-13.592-14.749-13.17-14.341-13.17-13.877V-6.624H-7.657L-3.563-14.32C-3.419-14.588-3.13-14.749-2.79-14.749H-1.187C-.83-14.749-.534-14.591-.374-14.315-.218-14.046-.223-13.715-.386-13.429L-4.518-6.203C-1.721-5.018 0-2.669 0 0M-3.097-.03C-3.097-2.248-4.989-4.052-7.315-4.052H-13.107V3.844H-7.315C-5.068 3.844-3.097 2.034-3.097-.03" fill="#f5eede"/>
</g>
</svg>
