<svg xmlns="http://www.w3.org/2000/svg" xmlns:xlink="http://www.w3.org/1999/xlink" xmlns:inkscape="http://www.inkscape.org/namespaces/inkscape" version="1.1" width="720" height="720" viewBox="0 0 720 720">
<defs>
<clipPath id="clip_1">
<path transform="matrix(1,0,0,-1,0,720)" d="M0 0H720V720H0Z"/>
</clipPath>
</defs>
<g clip-path="url(#clip_1)">
<path transform="matrix(1,0,0,-1,183.9083,233.10031)" d="M0 0C.183-.217 .412-.245 .595-.01L1.081 .617C1.178 .742 1.178 .968 1.081 1.069L-5.927 8.692C-5.914 8.707-5.89 8.739-5.878 8.754L4.652 5.249C4.77 5.208 4.958 5.288 5.031 5.382L5.25 5.664C5.323 5.758 5.354 5.96 5.284 6.064L-.747 15.364C-.735 15.38-.711 15.411-.699 15.427L8.448 10.56C8.582 10.507 8.789 10.547 8.886 10.672L9.373 11.299C9.555 11.534 9.471 11.749 9.216 11.872L-2.876 18.021C-3.026 18.087-3.217 18.034-3.314 17.909L-3.509 17.658C-3.594 17.549-3.613 17.363-3.543 17.258L2.715 7.506C2.69 7.475 2.678 7.459 2.654 7.428L-8.382 11.024C-8.5 11.066-8.676 11.002-8.761 10.892L-8.956 10.641C-9.053 10.516-9.056 10.318-8.955 10.189ZM8.332 21.013C11.219 18.293 15.673 18.426 18.393 21.313 21.113 24.2 20.993 28.668 18.106 31.388 15.219 34.108 10.723 33.988 8.003 31.101 5.284 28.214 5.445 23.733 8.332 21.013M9.282 22.022C6.987 24.184 6.85 27.856 9.012 30.151 11.174 32.446 14.861 32.542 17.156 30.379 19.452 28.217 19.547 24.558 17.384 22.263 15.222 19.968 11.578 19.859 9.282 22.022M27.881 31.84C28.014 31.693 28.25 31.666 28.412 31.812L31.776 34.832C33.679 36.542 33.919 38.913 32.434 40.566 31.215 41.924 29.579 41.76 28.506 41.382 28.842 42.402 28.851 43.903 27.831 45.039 26.439 46.589 24.171 46.655 22.371 45.038L19.14 42.137C18.978 41.991 18.98 41.753 19.112 41.605ZM24.125 38.245 20.878 41.861 23.283 44.022C24.42 45.042 25.69 44.904 26.645 43.841 27.573 42.808 27.667 41.426 26.531 40.405ZM28.322 33.513 25.008 37.203 27.443 39.389C28.594 40.423 30.243 40.517 31.184 39.469 32.138 38.407 32.085 36.892 31.008 35.925ZM40.228 42.602C40.352 42.447 40.602 42.418 40.757 42.541L41.377 43.034C41.532 43.158 41.56 43.408 41.437 43.563L33.266 53.833C33.143 53.988 32.892 54.017 32.737 53.894L32.117 53.401C31.963 53.278 31.934 53.027 32.058 52.872ZM47.756 48.53C47.87 48.368 48.102 48.313 48.28 48.438L53.893 52.379C54.072 52.505 54.099 52.742 53.985 52.904L53.655 53.373C53.542 53.535 53.31 53.59 53.131 53.465L48.458 50.183 41.462 60.147C41.348 60.309 41.1 60.353 40.938 60.239L40.306 59.795C40.128 59.67 40.1 59.433 40.214 59.271ZM59.044 56.337C59.148 56.168 59.376 56.1 59.561 56.214L66.211 60.31C66.397 60.424 66.439 60.659 66.335 60.828L66.034 61.316C65.93 61.485 65.702 61.553 65.516 61.439L59.843 57.945 57.191 62.252 62.036 65.237C62.205 65.34 62.274 65.569 62.16 65.754L61.859 66.243C61.755 66.411 61.509 66.47 61.341 66.366L56.495 63.381 53.957 67.503 59.629 70.997C59.815 71.111 59.857 71.346 59.753 71.514L59.452 72.003C59.348 72.171 59.12 72.24 58.934 72.126L52.284 68.03C52.098 67.915 52.057 67.681 52.161 67.512ZM75.955 73.683C77.611 70.079 81.825 68.548 85.428 70.204 87.031 70.941 88.325 72.21 89.004 73.961 89.072 74.145 88.992 74.414 88.798 74.456L88.034 74.694C87.893 74.716 87.741 74.668 87.627 74.441 87.003 73.282 86.374 72.229 84.807 71.508 81.96 70.2 78.679 71.595 77.403 74.371 76.12 77.164 77.199 80.562 80.045 81.87 81.27 82.433 82.798 82.48 84.108 82.1 84.371 82.003 84.523 82.051 84.584 82.297L84.847 83.007C84.925 83.218 84.808 83.426 84.597 83.504 82.892 83.985 81.288 84.01 79.468 83.174 75.865 81.518 74.298 77.287 75.955 73.683M94.696 74.659 95.442 74.927C95.61 74.988 95.682 75.14 95.686 75.246L95.942 78.815 102.567 81.194 105.053 78.611C105.124 78.531 105.276 78.459 105.444 78.52L106.191 78.788C106.471 78.888 106.533 79.185 106.334 79.387L96.188 89.919C96.092 90.011 95.965 90.071 95.797 90.01L95.611 89.943C95.443 89.883 95.383 89.756 95.367 89.624L94.204 75.03C94.18 74.748 94.416 74.559 94.696 74.659M96.05 80.157 96.576 87.256 96.725 87.31C98.37 85.604 100.003 83.873 101.648 82.168ZM112.224 81.205C112.277 81.014 112.477 80.884 112.687 80.943L113.431 81.149C113.621 81.202 113.745 81.421 113.692 81.612L112.341 86.485 115.992 87.497 119.938 83.139C119.998 83.073 120.12 83.004 120.292 83.051L121.265 83.321C121.589 83.411 121.638 83.754 121.435 83.965L117.474 88.093C118.951 89.221 119.707 91.015 119.219 92.773 118.588 95.048 116.22 96.323 113.927 95.687L108.979 94.315C108.769 94.257 108.664 94.043 108.717 93.852ZM112.031 87.754 110.509 93.24 114.217 94.268C115.689 94.676 117.314 93.789 117.717 92.336 118.152 90.769 117.21 89.19 115.739 88.782ZM128.763 85.548C128.801 85.354 128.991 85.21 129.205 85.252L136.866 86.77C137.08 86.813 137.201 87.018 137.162 87.212L137.051 87.775C137.012 87.969 136.822 88.113 136.608 88.071L130.073 86.776 129.09 91.738 134.672 92.844C134.867 92.883 135.011 93.073 134.969 93.286L134.857 93.849C134.819 94.043 134.609 94.183 134.415 94.145L128.832 93.039 127.892 97.787 134.427 99.082C134.641 99.124 134.762 99.33 134.723 99.524L134.612 100.087C134.573 100.281 134.383 100.425 134.169 100.383L126.508 98.865C126.294 98.823 126.174 98.617 126.212 98.423ZM152.158 89.406C152.174 89.208 152.347 89.044 152.564 89.062L153.333 89.125C153.53 89.141 153.693 89.334 153.677 89.531L153.232 94.926 158.904 95.394C159.101 95.41 159.264 95.602 159.248 95.799L159.201 96.371C159.185 96.569 158.992 96.731 158.795 96.715L153.123 96.248 152.677 101.664 159.316 102.212C159.534 102.23 159.677 102.42 159.661 102.618L159.614 103.19C159.597 103.387 159.425 103.551 159.207 103.533L151.423 102.892C151.206 102.874 151.063 102.683 151.079 102.486ZM166.43 97.189C166.405 93.222 169.535 90.052 173.502 90.027 177.468 90.002 180.658 93.132 180.684 97.098 180.709 101.065 177.558 104.275 173.592 104.3 169.626 104.325 166.455 101.155 166.43 97.189M167.816 97.18C167.835 100.333 170.43 102.935 173.583 102.915 176.737 102.895 179.318 100.261 179.298 97.107 179.278 93.954 176.664 91.392 173.511 91.412 170.357 91.432 167.796 94.027 167.816 97.18M187.671 90.315C187.655 90.117 187.798 89.926 188.015 89.909L188.784 89.845C188.982 89.829 189.174 89.992 189.19 90.19L189.606 95.229 193.381 94.917 195.579 89.464C195.612 89.382 195.702 89.275 195.88 89.26L196.887 89.177C197.222 89.15 197.386 89.454 197.269 89.723L194.977 94.965C196.753 95.513 198.082 96.935 198.232 98.754 198.426 101.107 196.645 103.121 194.273 103.317L189.155 103.739C188.938 103.757 188.766 103.592 188.749 103.395ZM189.752 96.527 190.22 102.201 194.055 101.885C195.577 101.759 196.796 100.365 196.672 98.863 196.538 97.242 195.11 96.086 193.587 96.211ZM211.651 87.809C211.536 87.55 211.611 87.331 211.902 87.27L212.678 87.106C212.833 87.073 213.037 87.172 213.085 87.304L216.882 96.937C216.901 96.933 216.94 96.924 216.96 96.92L218.405 85.917C218.42 85.792 218.574 85.659 218.69 85.634L219.039 85.56C219.156 85.536 219.351 85.596 219.414 85.704L225.146 95.192C225.166 95.188 225.205 95.179 225.224 95.175L224.841 84.821C224.851 84.677 224.978 84.509 225.133 84.476L225.909 84.312C226.2 84.251 226.357 84.42 226.357 84.704L226.606 98.267C226.6 98.43 226.47 98.58 226.314 98.612L226.004 98.678C225.868 98.707 225.693 98.642 225.629 98.534L219.589 88.645C219.551 88.654 219.531 88.658 219.492 88.666L217.908 100.164C217.894 100.289 217.759 100.419 217.623 100.448L217.313 100.513C217.158 100.546 216.978 100.462 216.906 100.315ZM234.2 89.397C232.999 85.617 235.047 81.66 238.827 80.459 242.607 79.258 246.583 81.3 247.784 85.08 248.986 88.86 246.93 92.861 243.15 94.062 239.37 95.263 235.402 93.177 234.2 89.397M235.52 88.978C236.476 91.983 239.726 93.697 242.731 92.742 245.736 91.786 247.419 88.505 246.464 85.499 245.509 82.494 242.252 80.824 239.247 81.779 236.241 82.734 234.565 85.973 235.52 88.978M252.45 76.504C252.372 76.322 252.447 76.096 252.629 76.018L256.708 74.263C260.224 72.75 264.33 74.371 265.85 77.905 267.355 81.403 265.708 85.498 262.192 87.011L258.113 88.765C257.931 88.844 257.715 88.743 257.637 88.561ZM254.223 76.819 258.636 87.075 261.369 85.9C264.357 84.614 265.608 81.55 264.322 78.562 263.029 75.556 259.944 74.358 256.956 75.643ZM269.645 68.891C269.554 68.716 269.612 68.485 269.805 68.384L276.735 64.781C276.929 64.681 277.152 64.766 277.243 64.941L277.508 65.45C277.599 65.626 277.54 65.857 277.347 65.958L271.436 69.031 273.769 73.519 278.818 70.894C278.994 70.803 279.225 70.861 279.326 71.054L279.591 71.563C279.682 71.739 279.606 71.979 279.43 72.071L274.381 74.696 276.614 78.99 282.525 75.917C282.718 75.817 282.941 75.902 283.032 76.077L283.297 76.586C283.388 76.762 283.33 76.993 283.136 77.094L276.207 80.697C276.013 80.797 275.791 80.712 275.699 80.536ZM283.549 61.513C283.443 61.345 283.482 61.11 283.666 60.993L284.318 60.58C284.486 60.475 284.732 60.53 284.838 60.698L287.541 64.97 290.742 62.945 290.162 57.094C290.154 57.006 290.184 56.869 290.335 56.774L291.188 56.234C291.473 56.054 291.76 56.248 291.78 56.54L292.178 62.247C294.007 61.91 295.843 62.555 296.819 64.097 298.081 66.092 297.436 68.702 295.424 69.975L291.085 72.72C290.901 72.837 290.672 72.771 290.566 72.604ZM288.273 66.053 291.316 70.864 294.568 68.807C295.859 67.99 296.293 66.19 295.487 64.916 294.617 63.542 292.815 63.179 291.524 63.996ZM297.983 52.322C297.864 52.164 297.898 51.914 298.056 51.795L298.608 51.376C298.782 51.245 299.016 51.292 299.135 51.45L305.646 60.047 305.661 60.035 306.061 45.485 306.345 45.269C306.502 45.15 306.74 45.169 306.86 45.327L314.914 55.963C315.034 56.121 314.999 56.371 314.842 56.491L314.289 56.909C314.116 57.04 313.882 56.994 313.762 56.836L307.383 48.412C307.367 48.424 307.367 48.424 307.352 48.436L306.947 62.717 306.553 63.016C306.395 63.135 306.157 63.116 306.037 62.958ZM319.276 35.214C319.14 35.07 319.133 34.832 319.292 34.683L324.284 29.979C324.443 29.83 324.68 29.851 324.816 29.995L325.209 30.413C325.345 30.557 325.352 30.795 325.193 30.945L321.037 34.86 329.385 43.722C329.521 43.866 329.513 44.118 329.369 44.254L328.807 44.783C328.649 44.932 328.411 44.911 328.275 44.767ZM329.141 25.675C328.996 25.539 328.989 25.287 329.125 25.143L329.667 24.567C329.803 24.422 330.055 24.415 330.2 24.551L339.752 33.55C339.896 33.686 339.904 33.938 339.768 34.082L339.225 34.659C339.089 34.803 338.837 34.81 338.693 34.674ZM335.724 18.711C335.572 18.584 335.536 18.348 335.676 18.18L336.171 17.588C336.298 17.436 336.549 17.414 336.701 17.541L340.856 21.011 344.504 16.644C344.631 16.492 344.882 16.469 345.034 16.596L345.474 16.964C345.626 17.091 345.649 17.342 345.521 17.494L341.873 21.861 346.045 25.346 350.316 20.233C350.455 20.066 350.694 20.058 350.846 20.185L351.286 20.553C351.438 20.68 351.473 20.916 351.333 21.083L346.326 27.077C346.186 27.244 345.948 27.251 345.796 27.125ZM345.415 6.91C345.256 6.792 345.207 6.559 345.336 6.384L349.976 .102C350.106-.074 350.343-.096 350.503 .022L350.964 .363C351.123 .48 351.172 .714 351.043 .889L347.085 6.248 351.154 9.254 354.535 4.676C354.653 4.517 354.886 4.467 355.061 4.596L355.523 4.937C355.682 5.055 355.719 5.304 355.601 5.464L352.221 10.041 356.114 12.917 360.072 7.558C360.202 7.383 360.439 7.361 360.599 7.478L361.06 7.819C361.219 7.937 361.268 8.17 361.139 8.346L356.499 14.628C356.37 14.803 356.132 14.825 355.973 14.707Z"/>
<path transform="matrix(1,0,0,-1,553.5779,353.878)" d="M0 0C0 106.739-86.839 193.578-193.579 193.578-300.317 193.578-387.156 106.739-387.156 0-387.156-13.665-385.709-26.995-383.002-39.867-382.946-40.607-382.784-41.34-382.405-41.992-381.391-43.735-379.439-44.518-377.657-43.896L-329.461-27.044-306.475-42.051C-304.712-43.202-302.481-42.773-301.169-41.028L-249.514 27.691-216.397-6.083C-214.723-7.791-212.097-7.681-210.543-5.838L-131.348 90.367-24.13-38.857-84.801-10.421-85.077-10.292-85.367-10.21C-86.271-9.956-87.237-10.05-88.087-10.473L-88.589-10.723-110.22-30.91-164.293 26.896-169.775 20.607-113.293-39.798C-112.063-41.125-110.257-41.48-108.693-40.702L-108.191-40.452-85.732-19.491-12.016-54.165-11.735-54.245C-11.393-54.343-11.048-54.39-10.706-54.39-9.303-54.39-7.974-53.582-7.201-52.235L-7.285-52.671C-7.237-52.503-7.197-52.332-7.15-52.163-7.134-52.134-7.109-52.112-7.094-52.082-6.765-51.452-6.634-50.758-6.594-50.061-2.311-34.084 0-17.31 0 0M-8.38 0C-8.38-13.847-9.929-27.335-12.826-40.323L-128.301 99.612-128.373 99.696C-129.154 100.588-130.241 101.098-131.36 101.098H-131.394C-132.526 101.087-133.619 100.555-134.394 99.638L-213.81 3.163-247.057 37.07C-247.892 37.919-249.017 38.36-250.146 38.274-251.274 38.191-252.338 37.59-253.065 36.623L-305.196-32.728-326.893-18.562C-327.907-17.9-329.131-17.745-330.252-18.137L-367.244-31.071-253.505 111.466-194.349 48.203-188.867 54.492-250.805 120.757C-251.617 121.633-252.732 122.105-253.861 122.061-254.992 122.014-256.071 121.448-256.822 120.507L-376.426-29.383C-377.961-19.809-378.776-9.999-378.776 0-378.776 102.119-295.697 185.199-193.579 185.199-91.459 185.199-8.38 102.119-8.38 0"/>
<path transform="matrix(1,0,0,-1,240.8178,575.2312)" d="M0 0C0-.198 .158-.377 .376-.377H1.128C1.326-.377 1.504-.198 1.504 0V4.66H4.777C7.197 4.66 9.198 6.66 9.198 9.12 9.198 11.52 7.197 13.5 4.757 13.5H.376C.158 13.5 0 13.322 0 13.124ZM1.504 6.124V11.996H4.658C6.285 11.996 7.673 10.766 7.673 9.159 7.673 7.453 6.285 6.124 4.658 6.124ZM15.783 0C15.783-.198 15.961-.377 16.159-.377H16.931C17.148-.377 17.307-.198 17.307 0V6.008H25.359V0C25.359-.198 25.518-.377 25.735-.377H26.508C26.705-.377 26.884-.198 26.884 0V13.124C26.884 13.322 26.705 13.5 26.508 13.5H25.735C25.518 13.5 25.359 13.322 25.359 13.124V7.334H17.307V13.124C17.307 13.322 17.148 13.5 16.931 13.5H16.159C15.961 13.5 15.783 13.322 15.783 13.124ZM37.692 0C37.692-.198 37.85-.377 38.068-.377H38.84C39.038-.377 39.216-.198 39.216 0V6.324L44.054 12.925C44.213 13.183 44.054 13.5 43.737 13.5H42.805C42.666 13.5 42.547 13.401 42.488 13.322L38.484 7.791 34.48 13.322C34.42 13.401 34.301 13.5 34.163 13.5H33.231C32.913 13.5 32.755 13.183 32.913 12.925L37.692 6.304ZM49.29 1.029C49.548 .791 51.132-.575 53.473-.575 55.794-.575 57.755 .929 57.755 2.992 57.755 5.293 56.032 6.304 53.354 7.395 51.688 8.089 50.676 8.862 50.676 10.191 50.676 11.024 51.311 12.373 53.414 12.373 54.624 12.373 55.873 11.54 56.012 11.46 56.329 11.282 56.527 11.361 56.705 11.639 56.785 11.758 56.864 11.897 56.943 12.016 57.181 12.392 56.943 12.63 56.824 12.689 56.824 12.689 55.377 13.699 53.433 13.699 50.28 13.699 49.211 11.52 49.211 10.171 49.211 7.91 50.518 7.018 52.699 6.066 54.981 5.114 56.171 4.301 56.171 2.933 56.171 1.762 55.12 .751 53.513 .751 51.747 .751 50.3 2.139 50.161 2.258 49.884 2.496 49.667 2.338 49.469 2.08 49.37 1.961 49.271 1.822 49.172 1.703 48.934 1.326 49.132 1.167 49.29 1.029M64.597 0C64.597-.198 64.775-.377 64.973-.377H65.765C65.963-.377 66.141-.198 66.141 0V13.124C66.141 13.322 65.963 13.5 65.765 13.5H64.973C64.775 13.5 64.597 13.322 64.597 13.124ZM73.143 6.542C73.143 2.576 76.333-.575 80.298-.575 82.063-.575 83.768 .039 85.116 1.346 85.255 1.485 85.295 1.762 85.136 1.881L84.541 2.417C84.422 2.496 84.264 2.516 84.065 2.357 83.014 1.564 82.003 .87 80.278 .87 77.145 .87 74.746 3.508 74.746 6.562 74.746 9.636 77.145 12.273 80.278 12.273 81.627 12.273 83.034 11.678 84.065 10.786 84.264 10.588 84.422 10.568 84.581 10.766L85.116 11.302C85.275 11.46 85.255 11.698 85.096 11.857 83.748 13.006 82.301 13.699 80.298 13.699 76.333 13.699 73.143 10.508 73.143 6.542M90.57-.377H91.363C91.541-.377 91.66-.258 91.7-.159L93.147 3.113H100.186L101.653-.159C101.693-.258 101.812-.377 101.99-.377H102.784C103.081-.377 103.24-.119 103.121 .139L97.133 13.48C97.073 13.599 96.974 13.699 96.796 13.699H96.597C96.419 13.699 96.32 13.599 96.26 13.48L90.233 .139C90.114-.119 90.272-.377 90.57-.377M93.702 4.34 96.597 10.843H96.756C97.727 8.682 98.679 6.501 99.651 4.34ZM109.248-.001C109.248-.199 109.407-.377 109.624-.377H116.483C116.701-.377 116.86-.199 116.86-.001V.573C116.86 .771 116.701 .949 116.483 .949H110.773V13.124C110.773 13.322 110.594 13.5 110.396 13.5H109.624C109.407 13.5 109.248 13.322 109.248 13.124ZM132.882 0C132.882-.198 133.061-.377 133.258-.377H134.011C134.209-.377 134.387-.198 134.387 0V12.174H137.837C138.055 12.174 138.214 12.352 138.214 12.55V13.124C138.214 13.322 138.055 13.5 137.837 13.5H129.432C129.214 13.5 129.056 13.322 129.056 13.124V12.55C129.056 12.352 129.214 12.174 129.432 12.174H132.882ZM144.362 0C144.362-.198 144.541-.377 144.738-.377H145.51C145.728-.377 145.887-.198 145.887 0V6.008H153.939V0C153.939-.198 154.098-.377 154.315-.377H155.087C155.285-.377 155.463-.198 155.463 0V13.124C155.463 13.322 155.285 13.5 155.087 13.5H154.315C154.098 13.5 153.939 13.322 153.939 13.124V7.334H145.887V13.124C145.887 13.322 145.728 13.5 145.51 13.5H144.738C144.541 13.5 144.362 13.322 144.362 13.124ZM163.476-.001C163.476-.199 163.634-.377 163.852-.377H171.662C171.88-.377 172.039-.199 172.039-.001V.573C172.039 .771 171.88 .949 171.662 .949H165V6.008H170.691C170.889 6.008 171.068 6.166 171.068 6.384V6.958C171.068 7.156 170.889 7.334 170.691 7.334H165V12.174H171.662C171.88 12.174 172.039 12.352 172.039 12.55V13.124C172.039 13.322 171.88 13.5 171.662 13.5H163.852C163.634 13.5 163.476 13.322 163.476 13.124ZM179.179 0C179.179-.198 179.338-.377 179.555-.377H180.327C180.525-.377 180.704-.198 180.704 0V5.056H184.492L187.13-.198C187.17-.278 187.269-.377 187.447-.377H188.457C188.794-.377 188.932-.059 188.794 .198L186.079 5.234C187.804 5.927 189.011 7.453 189.011 9.278 189.011 11.639 187.071 13.5 184.69 13.5H179.555C179.338 13.5 179.179 13.322 179.179 13.124ZM180.743 6.362V12.055H184.591C186.118 12.055 187.447 10.766 187.447 9.258 187.447 7.632 186.118 6.362 184.591 6.362ZM194.683-.377H195.476C195.655-.377 195.774-.258 195.813-.159L197.261 3.113H204.299L205.767-.159C205.806-.258 205.925-.377 206.104-.377H206.897C207.194-.377 207.353-.119 207.234 .139L201.246 13.48C201.187 13.599 201.087 13.699 200.909 13.699H200.711C200.532 13.699 200.433 13.599 200.374 13.48L194.346 .139C194.227-.119 194.386-.377 194.683-.377M197.816 4.34 200.711 10.843H200.869C201.841 8.682 202.793 6.501 203.764 4.34ZM213.362 0C213.362-.198 213.52-.377 213.738-.377H214.49C214.688-.377 214.866-.198 214.866 0V4.66H218.139C220.559 4.66 222.559 6.66 222.559 9.12 222.559 11.52 220.559 13.5 218.119 13.5H213.738C213.52 13.5 213.362 13.322 213.362 13.124ZM214.866 6.124V11.996H218.02C219.647 11.996 221.035 10.766 221.035 9.159 221.035 7.453 219.647 6.124 218.02 6.124ZM231.94 0C231.94-.198 232.098-.377 232.316-.377H233.088C233.286-.377 233.464-.198 233.464 0V6.324L238.302 12.925C238.461 13.183 238.302 13.5 237.985 13.5H237.053C236.914 13.5 236.795 13.401 236.736 13.322L232.732 7.791 228.728 13.322C228.668 13.401 228.549 13.5 228.411 13.5H227.479C227.161 13.5 227.003 13.183 227.161 12.925L231.94 6.304Z"/>
<path transform="matrix(1,0,0,-1,203.0411,538.33279)" d="M0 0C-.168-.741 .168-1.27 1.01-1.27H3.254C3.702-1.27 4.207-.9 4.263-.529L9.144 26.725H9.368L19.802-1.217C19.914-1.535 20.419-1.799 20.755-1.799H21.765C22.102-1.799 22.606-1.535 22.719-1.217L33.04 26.725H33.264L38.257-.529C38.369-.9 38.818-1.27 39.267-1.27H41.51C42.352-1.27 42.688-.741 42.52 0L35.284 35.562C35.172 35.986 34.723 36.303 34.274 36.303H33.377C32.984 36.303 32.535 36.039 32.423 35.721L21.484 6.562H21.204L10.097 35.721C9.985 36.039 9.536 36.303 9.144 36.303H8.246C7.797 36.303 7.348 35.986 7.236 35.562ZM60.19-1.27H62.433C62.938-1.27 63.275-.953 63.387-.688L67.482 8.044H87.396L91.547-.688C91.659-.953 91.995-1.27 92.5-1.27H94.744C95.586-1.27 96.034-.582 95.698 .106L78.757 35.721C78.589 36.039 78.308 36.303 77.803 36.303H77.242C76.738 36.303 76.457 36.039 76.289 35.721L59.236 .106C58.899-.582 59.348-1.27 60.19-1.27M69.053 11.325 77.242 28.683H77.691C80.44 22.914 83.132 17.093 85.881 11.325ZM118.641-.265C118.641-.794 119.145-1.27 119.706-1.27H121.838C122.399-1.27 122.904-.794 122.904-.265V32.228H132.664C133.281 32.228 133.73 32.705 133.73 33.234V34.768C133.73 35.298 133.281 35.774 132.664 35.774H108.88C108.263 35.774 107.814 35.298 107.814 34.768V33.234C107.814 32.705 108.263 32.228 108.88 32.228H118.641ZM160.262-.265C160.262-.794 160.767-1.27 161.327-1.27H163.459C164.02-1.27 164.525-.794 164.525-.265V32.228H174.285C174.902 32.228 175.351 32.705 175.351 33.234V34.768C175.351 35.298 174.902 35.774 174.285 35.774H150.501C149.884 35.774 149.435 35.298 149.435 34.768V33.234C149.435 32.705 149.884 32.228 150.501 32.228H160.262ZM194.984-.265C194.984-.794 195.433-1.27 196.05-1.27H218.151C218.768-1.27 219.217-.794 219.217-.265V1.27C219.217 1.799 218.768 2.276 218.151 2.276H199.303V15.77H215.402C215.963 15.77 216.468 16.194 216.468 16.776V18.31C216.468 18.84 215.963 19.316 215.402 19.316H199.303V32.228H218.151C218.768 32.228 219.217 32.705 219.217 33.234V34.768C219.217 35.298 218.768 35.774 218.151 35.774H196.05C195.433 35.774 194.984 35.298 194.984 34.768ZM241.654-.265C241.654-.794 242.103-1.27 242.72-1.27H244.908C245.469-1.27 245.973-.794 245.973-.265V13.23H256.688L264.148-.794C264.26-1.005 264.541-1.27 265.046-1.27H267.907C268.86-1.27 269.253-.423 268.86 .265L261.175 13.706C266.056 15.558 269.477 19.633 269.477 24.502 269.477 30.799 263.98 35.774 257.249 35.774H242.72C242.103 35.774 241.654 35.298 241.654 34.768ZM246.086 16.723V31.911H256.968C261.287 31.911 265.046 28.471 265.046 24.449 265.046 20.11 261.287 16.723 256.968 16.723ZM290.007 2.487C290.736 1.852 295.224-1.799 301.843-1.799 308.406-1.799 313.96 2.223 313.96 7.726 313.96 13.865 309.08 16.564 301.507 19.475 296.795 21.327 293.934 23.391 293.934 26.936 293.934 29.159 295.729 32.757 301.675 32.757 305.097 32.757 308.631 30.535 309.023 30.323 309.921 29.847 310.482 30.059 310.987 30.799 311.211 31.117 311.436 31.487 311.66 31.805 312.333 32.81 311.66 33.445 311.323 33.604 311.323 33.604 307.228 36.303 301.731 36.303 292.812 36.303 289.783 30.482 289.783 26.883 289.783 20.85 293.485 18.469 299.656 15.929 306.107 13.389 309.472 11.219 309.472 7.568 309.472 4.445 306.499 1.746 301.956 1.746 296.963 1.746 292.868 5.451 292.475 5.768 291.69 6.403 291.073 5.98 290.512 5.292 290.232 4.974 289.951 4.604 289.671 4.287 288.998 3.281 289.559 2.858 290.007 2.487"/>
<path transform="matrix(1,0,0,-1,195.5368,479.6942)" d="M0 0C-.169-1.094 .422-1.797 1.603-1.797H7.087C7.762-1.797 8.521-1.25 8.606-.703L14.68 34.217H15.018L30.289-1.719C30.457-2.187 31.048-2.578 31.723-2.578H33.242C34.001-2.578 34.507-2.187 34.676-1.719L49.862 34.217H50.116L56.359-.703C56.528-1.25 57.203-1.797 57.962-1.797H63.446C64.627-1.797 65.218-1.094 64.965 0L54.587 52.497C54.418 53.122 53.743 53.668 53.068 53.668H51.719C51.128 53.668 50.453 53.278 50.284 52.809L32.735 12.89H32.398L14.765 52.809C14.596 53.278 13.837 53.668 13.33 53.668H11.98C11.306 53.668 10.631 53.122 10.462 52.497ZM100.821-1.719C101.074-2.187 101.665-2.578 102.256-2.578H103.099C103.774-2.578 104.28-2.187 104.534-1.719L130.435 50.856C130.941 51.872 130.266 52.887 129.001 52.887H123.011C122.251 52.887 121.745 52.419 121.576 52.028L103.015 13.359H102.509L83.947 52.028C83.779 52.419 83.188 52.887 82.513 52.887H76.523C75.257 52.887 74.582 51.872 75.089 50.856ZM140.475 0C140.306-1.094 140.896-1.797 142.078-1.797H147.562C148.236-1.797 148.996-1.25 149.08-.703L155.155 34.217H155.492L170.763-1.719C170.932-2.187 171.523-2.578 172.197-2.578H173.716C174.475-2.578 174.982-2.187 175.15-1.719L190.337 34.217H190.59L196.833-.703C197.002-1.25 197.677-1.797 198.436-1.797H203.92C205.102-1.797 205.692-1.094 205.439 0L195.062 52.497C194.893 53.122 194.218 53.668 193.543 53.668H192.193C191.602 53.668 190.928 53.278 190.759 52.809L173.21 12.89H172.872L155.239 52.809C155.07 53.278 154.311 53.668 153.805 53.668H152.455C151.78 53.668 151.105 53.122 150.936 52.497ZM224.59-.312C224.59-1.094 225.349-1.797 226.193-1.797H231.508C232.436-1.797 233.111-1.094 233.111-.312V37.732H233.196L269.812-2.578H272.006C272.849-2.578 273.609-1.953 273.609-1.172V51.403C273.609 52.184 272.849 52.887 272.006 52.887H266.606C265.678 52.887 265.003 52.184 265.003 51.403V14.452H264.919L228.302 53.668H226.193C225.349 53.668 224.59 53.043 224.59 52.262ZM304.825-.312C304.825-1.094 305.584-1.797 306.428-1.797H311.996C312.84-1.797 313.599-1.094 313.599-.312V45.544H327.352C328.28 45.544 328.955 46.247 328.955 47.028V51.403C328.955 52.184 328.28 52.887 327.352 52.887H291.073C290.145 52.887 289.47 52.184 289.47 51.403V47.028C289.47 46.247 290.145 45.544 291.073 45.544H304.825Z"/>
</g>
</svg>
